<?xml version="1.0" standalone="no"?>
<!DOCTYPE svg PUBLIC "-//W3C//DTD SVG 20010904//EN"
 "http://www.w3.org/TR/2001/REC-SVG-20010904/DTD/svg10.dtd">
<svg version="1.0" xmlns="http://www.w3.org/2000/svg"
 width="3508.000000pt" height="2481.000000pt" viewBox="0 0 3508.000000 2481.000000"
 preserveAspectRatio="xMidYMid meet">

<g transform="translate(0.000000,2481.000000) scale(0.100000,-0.100000)"
fill="#000000" stroke="none">
<path d="M537 16723 c-4 -3 -7 -1610 -7 -3570 l0 -3563 500 0 500 0 0 254 c0
140 3 257 7 259 15 9 48 -11 100 -57 28 -25 57 -46 63 -46 14 0 108 -59 153
-97 16 -13 35 -23 43 -23 18 0 161 -67 169 -79 5 -9 125 -51 145 -51 5 0 29
-9 53 -19 78 -36 191 -69 272 -81 44 -6 96 -15 115 -20 118 -29 198 -35 450
-35 212 0 283 4 355 18 50 10 133 25 185 33 104 17 234 54 293 85 22 10 46 19
55 19 28 0 99 28 175 68 40 21 94 47 121 57 27 10 62 30 79 44 32 27 68 49
135 82 24 12 57 37 74 55 18 18 49 40 70 48 20 9 44 26 53 39 8 13 34 37 58
54 55 40 242 225 287 285 19 26 45 52 57 59 12 7 31 31 42 55 11 23 27 46 34
51 13 8 77 97 77 107 0 8 70 118 90 141 10 11 20 32 23 46 4 14 29 67 57 117
27 50 50 95 50 101 0 16 29 102 50 146 27 59 52 127 55 150 6 41 25 141 36
185 70 296 78 668 20 950 -58 281 -75 346 -110 425 -25 54 -51 132 -51 151 0
9 -8 28 -18 42 -10 15 -26 44 -35 64 -10 20 -22 40 -27 43 -5 3 -14 24 -20 46
-6 22 -35 76 -65 121 -30 46 -55 88 -55 94 0 7 -22 37 -49 66 -28 30 -53 66
-56 80 -4 14 -16 31 -28 37 -12 7 -38 33 -57 58 -58 77 -175 196 -268 275 -48
40 -95 83 -105 95 -10 12 -27 25 -40 29 -12 4 -44 26 -72 50 -27 24 -77 57
-110 75 -32 17 -75 44 -95 59 -19 15 -48 31 -64 34 -17 4 -41 15 -55 25 -45
29 -154 79 -211 96 -30 9 -73 24 -95 34 -69 33 -118 48 -190 60 -38 7 -106 21
-150 32 -324 78 -666 77 -1020 -2 -22 -5 -65 -13 -95 -19 -78 -14 -167 -38
-209 -56 -20 -9 -46 -20 -58 -25 -13 -5 -33 -13 -45 -18 -13 -6 -39 -13 -58
-17 -19 -3 -47 -15 -62 -25 -14 -11 -30 -19 -36 -19 -5 0 -27 -12 -48 -26 -21
-15 -53 -31 -71 -36 -18 -5 -70 -33 -115 -63 -46 -30 -88 -55 -93 -55 -6 0
-37 -22 -70 -50 -106 -89 -95 -227 -95 1205 l0 1255 -493 0 c-272 0 -497 -3
-500 -7z m2663 -2994 c175 -16 406 -72 520 -126 172 -82 183 -88 224 -120 23
-18 46 -33 53 -33 12 0 37 -22 180 -155 82 -76 187 -199 215 -252 10 -18 34
-53 53 -79 19 -25 35 -51 35 -58 0 -7 22 -55 48 -107 26 -52 54 -121 61 -154
7 -33 17 -71 22 -85 22 -67 58 -304 59 -392 0 -102 -35 -340 -60 -403 -4 -11
-13 -47 -20 -80 -10 -50 -50 -143 -132 -313 -7 -12 -26 -39 -44 -59 -18 -20
-35 -47 -38 -59 -14 -54 -311 -346 -392 -386 -21 -10 -45 -26 -55 -37 -17 -18
-46 -33 -204 -106 -153 -71 -145 -69 -270 -89 -11 -2 -60 -12 -110 -21 -120
-25 -386 -25 -498 -1 -85 18 -122 25 -177 33 -19 2 -46 9 -60 15 -14 6 -36 15
-50 21 -26 10 -48 20 -77 37 -39 21 -127 60 -138 60 -6 0 -26 13 -45 28 -19
16 -51 37 -70 48 -104 57 -355 299 -398 384 -7 14 -28 42 -47 63 -18 21 -39
54 -46 75 -6 20 -17 44 -24 52 -25 30 -83 156 -90 195 -4 22 -10 45 -15 50 -4
6 -10 21 -13 35 -3 14 -14 59 -25 100 -38 146 -45 208 -39 390 6 194 28 321
78 445 4 11 11 36 14 55 7 36 54 135 85 180 10 14 21 40 25 57 3 18 10 35 15
38 5 3 38 47 74 98 35 50 100 128 143 173 92 95 218 204 236 204 7 0 37 20 67
45 30 25 61 45 68 45 10 0 68 26 135 61 67 35 92 45 152 59 28 6 66 15 87 21
92 24 159 35 363 58 6 0 62 -4 125 -10z"/>
<path d="M8340 14760 c0 -6 -33 -10 -80 -10 -47 0 -80 -4 -80 -10 0 -5 -25
-10 -55 -10 -30 0 -55 -4 -55 -10 0 -5 -18 -10 -40 -10 -22 0 -40 -4 -40 -9 0
-4 -30 -11 -67 -14 -37 -4 -71 -11 -77 -17 -5 -5 -32 -10 -58 -10 -26 0 -48
-4 -48 -10 0 -5 -8 -10 -18 -10 -22 0 -72 -22 -72 -32 0 -5 -9 -8 -21 -8 -11
0 -45 -11 -75 -25 -30 -14 -64 -25 -74 -25 -19 0 -58 -17 -70 -31 -6 -7 -39
-19 -44 -16 -3 1 -15 -8 -28 -19 -13 -12 -41 -28 -63 -35 -22 -8 -42 -16 -45
-19 -7 -7 -43 -29 -60 -37 -8 -3 -30 -19 -48 -35 -18 -15 -42 -28 -52 -28 -11
0 -20 -4 -20 -10 0 -5 -6 -10 -13 -10 -8 0 -20 -11 -27 -25 -7 -14 -22 -25
-32 -25 -10 0 -18 -4 -18 -8 0 -5 -12 -15 -27 -23 -16 -7 -42 -28 -59 -46 -18
-18 -36 -33 -40 -33 -13 0 -304 -293 -304 -306 0 -6 -17 -25 -37 -42 -21 -17
-47 -51 -58 -76 -13 -30 -30 -51 -47 -59 -16 -6 -28 -20 -28 -29 0 -10 -4 -18
-10 -18 -5 0 -10 -10 -10 -23 0 -13 -11 -34 -25 -47 -14 -13 -25 -28 -25 -35
0 -6 -9 -17 -19 -24 -11 -8 -28 -43 -38 -78 -10 -34 -21 -63 -25 -63 -5 0 -8
-5 -8 -10 0 -6 -9 -20 -20 -32 -11 -12 -20 -28 -20 -35 0 -7 -5 -13 -11 -13
-5 0 -7 -5 -4 -10 4 -6 2 -16 -3 -23 -6 -7 -16 -34 -22 -60 -7 -26 -16 -47
-21 -47 -5 0 -9 -9 -9 -20 0 -11 -4 -20 -10 -20 -5 0 -10 -9 -10 -20 0 -11 -4
-20 -10 -20 -5 0 -10 -9 -10 -21 0 -12 -6 -35 -14 -52 -7 -18 -19 -66 -26
-107 -7 -41 -17 -79 -22 -84 -4 -6 -8 -25 -8 -43 0 -18 -4 -33 -10 -33 -5 0
-10 -15 -10 -34 0 -19 -4 -38 -10 -41 -5 -3 -7 -28 -5 -55 3 -30 1 -50 -5 -50
-6 0 -10 -32 -10 -79 0 -44 -4 -83 -10 -86 -6 -4 -10 -78 -10 -191 0 -116 4
-184 10 -184 6 0 10 -37 10 -90 0 -58 4 -90 11 -90 7 0 9 -14 5 -40 -3 -21 -1
-42 4 -45 6 -3 10 -26 10 -51 0 -24 5 -44 10 -44 6 0 10 -16 10 -35 0 -19 4
-35 8 -35 5 0 14 -36 21 -80 8 -44 17 -83 22 -86 5 -3 9 -15 9 -27 0 -12 7
-35 15 -51 8 -15 15 -37 15 -47 0 -11 5 -19 10 -19 6 0 10 -9 10 -20 0 -11 4
-20 9 -20 5 0 15 -24 21 -52 7 -29 17 -59 23 -65 5 -7 6 -13 1 -13 -5 0 -4 -4
1 -8 6 -4 17 -20 25 -37 8 -16 22 -37 31 -45 8 -8 21 -37 29 -63 7 -27 19 -51
27 -54 7 -3 13 -14 13 -24 0 -10 5 -19 10 -19 6 0 10 -6 10 -13 0 -8 11 -24
25 -37 14 -13 25 -33 25 -45 0 -11 9 -27 20 -35 11 -8 20 -22 20 -32 0 -10 6
-18 14 -18 15 0 56 -62 56 -86 0 -8 8 -17 18 -21 23 -8 72 -54 72 -68 0 -6 60
-69 133 -140 168 -163 238 -225 254 -225 7 0 13 -4 13 -10 0 -5 7 -10 15 -10
9 0 35 -20 59 -45 25 -25 53 -45 63 -45 11 0 32 -13 47 -29 16 -16 40 -32 54
-36 14 -3 37 -19 53 -36 18 -19 37 -29 56 -29 17 0 38 -9 48 -20 9 -10 20 -19
24 -19 14 2 51 -14 51 -22 0 -5 9 -9 20 -9 11 0 20 -4 20 -10 0 -5 9 -10 20
-10 11 0 20 -4 20 -9 0 -8 52 -21 92 -22 10 0 20 -4 23 -10 4 -5 15 -9 26 -9
10 0 19 -3 19 -7 0 -13 52 -33 82 -33 15 0 28 -3 28 -8 0 -12 57 -34 82 -31
38 3 148 -13 148 -22 0 -5 25 -9 55 -9 30 0 55 -4 55 -10 0 -5 25 -10 55 -10
30 0 55 -4 55 -10 0 -6 105 -10 295 -10 190 0 295 4 295 10 0 6 28 10 65 10
37 0 65 4 65 10 0 6 20 10 45 10 25 0 45 4 45 9 0 9 128 26 167 22 11 -1 24 3
28 8 3 6 17 11 31 11 13 0 24 5 24 10 0 6 8 10 18 10 22 0 72 22 72 33 0 4 12
7 28 7 15 1 38 7 52 15 14 8 41 14 60 15 24 0 40 7 50 20 8 11 22 20 31 20 10
0 19 3 21 8 6 14 106 62 130 62 13 0 30 9 38 20 8 11 22 20 31 20 9 0 19 7 23
15 3 8 11 15 18 15 7 0 29 14 48 30 19 16 41 30 48 30 7 0 25 11 40 25 15 14
30 25 34 25 5 0 22 14 40 30 17 17 35 30 40 30 5 0 19 11 32 25 13 14 29 25
35 25 15 0 41 25 41 39 0 6 10 16 23 22 12 7 29 20 38 31 9 10 20 18 25 18 5
0 14 10 19 22 6 13 20 28 32 34 30 14 63 45 63 57 0 5 27 37 60 69 33 33 60
64 60 69 0 5 14 22 30 37 17 16 30 34 30 41 0 6 16 27 35 45 19 19 35 41 35
49 0 8 9 26 20 40 11 14 20 30 20 36 0 6 6 11 13 11 6 0 18 15 26 33 8 17 17
34 21 37 11 9 40 77 40 94 0 9 5 16 10 16 6 0 10 6 10 13 0 8 9 22 20 32 11
10 20 24 20 32 0 7 5 13 10 13 6 0 10 11 10 24 0 14 5 28 10 31 6 4 7 11 4 17
-6 10 35 100 49 106 4 2 7 12 7 23 0 10 5 19 10 19 6 0 10 9 10 20 0 11 4 28
10 38 5 9 12 43 15 74 4 32 11 60 16 63 5 4 9 19 9 35 0 16 5 32 10 35 6 3 10
17 10 30 0 13 5 27 10 30 6 3 10 22 10 41 0 19 4 34 9 34 17 0 23 118 23 500
0 382 -6 500 -23 500 -5 0 -9 15 -9 34 0 19 -4 38 -10 41 -5 3 -10 17 -10 31
0 13 -4 24 -10 24 -5 0 -10 15 -10 34 0 19 -4 37 -9 41 -5 3 -12 31 -16 63 -3
31 -10 65 -15 74 -6 10 -10 27 -10 38 0 11 -4 20 -10 20 -5 0 -10 9 -10 20 0
11 -3 20 -7 20 -10 0 -33 49 -33 71 0 9 -7 22 -15 29 -8 7 -15 28 -15 46 0 19
-4 34 -10 34 -5 0 -10 6 -10 14 0 7 -7 19 -15 26 -15 12 -27 36 -66 128 -8 17
-16 32 -20 32 -3 0 -11 16 -19 35 -8 19 -20 35 -27 35 -7 0 -13 5 -13 11 0 6
-9 22 -20 36 -11 14 -20 32 -20 40 0 8 -16 30 -35 49 -19 18 -35 39 -35 47 0
7 -9 19 -20 27 -11 8 -20 20 -20 26 0 14 -76 94 -90 94 -5 0 -12 11 -16 25 -5
22 -37 54 -108 110 -14 11 -26 25 -26 31 0 15 -42 51 -64 56 -10 1 -24 12 -30
22 -18 32 -54 66 -69 66 -8 0 -22 11 -31 25 -9 14 -24 25 -33 25 -8 0 -23 8
-32 18 -9 10 -24 21 -34 25 -11 4 -21 16 -24 27 -3 11 -14 20 -24 20 -23 0
-55 17 -86 48 -13 12 -30 22 -38 22 -8 0 -15 5 -15 10 0 6 -9 10 -19 10 -11 0
-21 4 -23 8 -1 4 -29 21 -61 37 -32 17 -67 34 -78 40 -10 5 -19 13 -19 17 0 5
-13 8 -30 8 -16 0 -30 3 -30 8 0 8 -70 32 -94 32 -8 0 -16 7 -20 15 -3 9 -18
15 -36 15 -16 0 -30 5 -30 10 0 6 -11 10 -25 10 -14 0 -25 5 -25 10 0 6 -9 10
-20 10 -11 0 -20 5 -20 10 0 6 -22 10 -49 10 -28 0 -52 4 -55 9 -3 5 -37 12
-76 16 -38 4 -70 11 -70 16 0 5 -20 9 -44 9 -25 0 -48 5 -51 10 -3 6 -28 10
-55 10 -27 0 -52 5 -55 10 -3 6 -42 10 -86 10 -46 0 -79 4 -79 10 0 6 -62 10
-165 10 -103 0 -165 -4 -165 -10z m325 -1060 c3 -5 28 -10 55 -10 27 0 52 -4
55 -10 3 -5 24 -10 45 -10 21 0 42 -4 45 -10 3 -5 28 -10 54 -10 26 0 52 -5
59 -12 7 -7 12 -9 12 -5 0 4 16 -2 35 -13 20 -11 41 -20 48 -20 7 0 22 -8 33
-18 21 -20 51 -35 74 -37 18 -2 93 -36 100 -45 3 -4 13 -9 23 -13 9 -3 17 -12
17 -20 0 -7 21 -20 48 -28 30 -9 51 -23 57 -37 5 -12 14 -22 19 -22 5 0 30
-18 55 -41 129 -114 151 -135 151 -144 0 -6 21 -31 46 -55 25 -25 53 -61 62
-80 9 -19 27 -46 40 -59 13 -13 28 -33 33 -45 5 -11 13 -28 18 -36 5 -8 16
-30 23 -47 7 -18 16 -33 20 -33 5 0 8 -9 8 -20 0 -11 5 -20 10 -20 6 0 10 -9
10 -20 0 -11 3 -20 8 -20 11 0 42 -93 42 -129 0 -17 5 -31 10 -31 6 0 10 -11
10 -24 0 -14 5 -28 10 -31 6 -3 10 -22 10 -41 0 -19 5 -34 10 -34 6 0 10 -16
10 -35 0 -19 4 -35 10 -35 6 0 7 -23 4 -59 -4 -39 -3 -61 5 -65 15 -10 15
-216 0 -216 -9 0 -10 -21 -6 -70 3 -41 2 -70 -4 -70 -5 0 -9 -16 -9 -35 0 -19
-4 -35 -10 -35 -5 0 -10 -15 -10 -34 0 -19 -4 -38 -10 -41 -5 -3 -10 -17 -10
-31 0 -13 -4 -24 -10 -24 -5 0 -10 -15 -10 -32 -1 -41 -32 -134 -54 -159 -9
-11 -16 -26 -16 -34 0 -8 -4 -15 -10 -15 -5 0 -10 -7 -10 -15 0 -8 -4 -15 -10
-15 -5 0 -12 -16 -16 -35 -3 -19 -10 -35 -15 -35 -5 0 -9 -7 -9 -15 0 -9 -17
-32 -39 -51 -23 -22 -37 -43 -34 -52 2 -11 -17 -38 -52 -72 -30 -30 -55 -60
-55 -67 0 -8 -8 -16 -17 -20 -25 -8 -93 -75 -93 -90 0 -8 -10 -18 -22 -24 -56
-25 -81 -43 -85 -60 -6 -20 -69 -56 -80 -46 -3 3 -22 -11 -42 -31 -34 -36 -96
-72 -131 -77 -30 -5 -60 -17 -60 -26 0 -5 -9 -9 -20 -9 -11 0 -20 -3 -20 -7 0
-10 -49 -33 -69 -33 -9 0 -29 -7 -45 -15 -15 -8 -37 -15 -47 -15 -10 0 -21 -4
-24 -10 -3 -5 -35 -10 -71 -10 -36 0 -64 -4 -64 -10 0 -5 -25 -10 -55 -10 -30
0 -55 -4 -55 -10 0 -6 -53 -10 -139 -10 -83 0 -142 4 -146 10 -3 6 -28 10 -55
10 -27 0 -52 5 -55 10 -3 6 -35 10 -70 10 -35 0 -67 5 -70 10 -3 6 -17 10 -30
10 -13 0 -27 5 -30 10 -4 6 -11 7 -17 4 -5 -4 -23 3 -39 15 -15 11 -37 21 -49
21 -11 0 -20 5 -20 10 0 6 -6 10 -13 10 -8 0 -22 9 -32 20 -11 12 -28 20 -40
18 -12 -1 -33 5 -48 15 -14 9 -31 17 -37 17 -5 0 -10 5 -10 10 0 6 -7 10 -16
10 -9 0 -25 11 -35 24 -11 14 -32 27 -48 31 -16 3 -35 13 -42 21 -6 8 -18 14
-25 14 -8 0 -14 5 -14 12 0 20 -42 58 -65 58 -13 0 -27 10 -36 28 -15 29 -68
82 -83 82 -12 0 -35 32 -36 49 0 19 -40 61 -57 61 -7 0 -13 6 -13 13 0 8 -9
22 -20 32 -11 10 -20 28 -20 40 0 14 -8 25 -20 28 -11 3 -20 12 -20 21 0 9 -5
16 -11 16 -6 0 -9 5 -7 12 3 7 -8 25 -24 41 -17 19 -28 41 -28 58 0 16 -4 29
-10 29 -5 0 -10 9 -10 20 0 11 -4 20 -9 20 -5 0 -12 16 -15 35 -4 19 -11 35
-16 35 -6 0 -10 8 -10 18 0 11 -7 33 -15 50 -9 17 -18 53 -22 81 -3 28 -10 51
-14 51 -5 0 -9 15 -9 34 0 19 -4 37 -9 41 -6 3 -7 28 -4 55 4 34 2 50 -6 50
-8 0 -11 52 -11 180 0 127 3 180 11 180 8 0 9 13 5 39 -3 23 -2 42 4 46 5 3
10 26 10 51 0 24 4 44 9 44 4 0 13 30 19 67 6 37 16 69 22 71 5 2 10 12 10 23
0 10 5 19 11 19 6 0 8 8 5 18 -4 12 1 26 14 37 11 10 20 26 20 37 0 10 5 18
10 18 6 0 10 11 10 25 0 14 5 25 10 25 6 0 10 9 10 20 0 11 5 20 10 20 6 0 10
6 10 13 0 6 16 29 35 49 19 20 35 43 35 50 0 25 25 67 42 72 10 2 21 12 25 23
4 10 15 25 25 34 10 9 18 24 18 33 0 9 6 16 14 16 18 0 96 76 96 94 0 7 8 16
18 20 37 13 78 44 90 69 14 28 74 63 91 52 6 -3 11 1 11 10 0 8 8 19 18 22 9
4 24 15 33 25 9 10 24 18 33 18 9 0 16 4 16 9 0 9 30 22 60 26 25 3 54 18 71
37 9 10 28 18 43 18 14 0 26 3 26 8 0 11 58 34 69 28 5 -4 12 -2 16 4 3 5 28
10 55 10 27 0 52 5 55 10 3 6 22 10 41 10 19 0 34 5 34 10 0 6 20 10 44 10 25
0 48 5 51 10 4 6 70 10 165 10 95 0 161 -4 165 -10z"/>
<path d="M17273 14733 l-5933 -3 0 -2570 0 -2570 500 0 500 0 2 2073 3 2072
1385 0 1385 0 50 -23 c28 -12 59 -28 70 -34 11 -6 29 -16 40 -22 52 -28 106
-88 167 -188 l33 -53 3 -1912 2 -1913 500 0 500 0 2 1893 3 1892 28 55 c49 97
66 123 113 171 43 43 145 102 223 128 25 8 617 11 2153 11 l2119 0 -6 -22 c-4
-13 -15 -34 -26 -48 -11 -14 -36 -49 -56 -77 -20 -29 -39 -53 -43 -53 -4 0
-12 -18 -19 -40 -6 -21 -23 -52 -36 -69 -14 -16 -39 -60 -56 -98 -17 -37 -50
-108 -75 -158 -24 -49 -48 -110 -53 -135 -8 -40 -69 -230 -92 -285 -4 -11 -12
-65 -18 -120 -6 -55 -16 -138 -23 -185 -16 -110 -16 -470 0 -580 6 -47 17
-128 23 -180 10 -92 21 -136 80 -305 15 -44 30 -96 34 -115 6 -31 36 -98 133
-299 15 -30 36 -67 49 -81 12 -15 28 -45 35 -68 7 -23 16 -42 21 -42 4 0 23
-24 42 -52 20 -29 51 -76 70 -104 18 -28 47 -62 63 -76 16 -14 33 -34 36 -46
4 -12 29 -41 55 -64 27 -24 54 -53 60 -65 6 -12 30 -35 54 -52 23 -16 48 -40
56 -54 7 -13 29 -34 50 -45 20 -12 56 -42 80 -67 24 -25 48 -45 53 -45 5 0 37
-23 72 -50 35 -28 79 -56 97 -64 19 -8 51 -28 73 -45 21 -17 68 -45 105 -62
36 -17 77 -37 91 -45 78 -41 154 -74 192 -85 24 -6 52 -15 63 -19 134 -54 209
-76 300 -90 77 -11 114 -18 220 -40 28 -6 154 -14 280 -17 221 -5 299 0 455
28 30 5 80 14 110 19 142 23 231 46 290 73 19 9 67 26 105 37 72 22 161 62
205 91 14 9 39 19 55 23 35 9 126 63 170 100 17 14 45 29 63 32 18 4 40 16 50
28 17 21 105 86 116 86 3 0 6 -117 6 -260 l0 -260 503 0 502 0 -2 1378 c-1
918 -5 1399 -12 1442 -6 36 -15 115 -21 175 -12 115 -33 208 -70 300 -15 38
-50 161 -50 176 0 8 -6 23 -13 34 -7 11 -20 36 -27 55 -7 19 -22 47 -32 62
-10 14 -18 34 -18 43 0 19 -40 98 -81 160 -14 22 -31 56 -38 76 -6 20 -21 45
-31 54 -11 10 -42 52 -69 94 -27 42 -62 90 -78 106 -16 17 -40 47 -52 67 -12
21 -35 45 -51 55 -16 9 -35 30 -41 46 -7 16 -31 42 -53 59 -22 16 -48 40 -57
54 -9 14 -36 38 -58 54 -23 15 -49 37 -57 49 -8 11 -59 52 -112 90 -54 38
-103 76 -110 84 -7 8 -25 18 -40 22 -15 4 -49 23 -77 44 -27 20 -61 42 -75 48
-14 7 -45 21 -70 32 -25 11 -63 31 -85 44 -22 13 -65 31 -95 41 -30 10 -73 26
-95 36 -119 53 -162 66 -295 91 -25 4 -66 13 -92 19 -117 25 -151 31 -273 45
-71 8 -146 14 -165 12 -19 -1 -2705 -3 -5967 -4z m6037 -1009 c71 -6 150 -21
230 -42 19 -5 62 -15 95 -22 59 -13 176 -61 205 -85 8 -7 29 -15 45 -19 17 -4
62 -29 100 -55 39 -26 84 -55 100 -64 26 -13 107 -84 170 -148 113 -114 135
-138 135 -149 0 -6 20 -33 45 -58 25 -25 45 -50 45 -57 0 -6 21 -44 46 -85 77
-125 81 -132 99 -200 7 -26 20 -62 36 -97 10 -24 19 -50 19 -58 0 -8 4 -23 9
-33 27 -51 36 -146 36 -392 0 -243 -7 -325 -35 -395 -4 -11 -13 -36 -20 -55
-7 -19 -16 -44 -21 -55 -5 -11 -20 -55 -34 -97 -13 -42 -45 -107 -70 -144 -25
-37 -45 -72 -45 -76 0 -16 -81 -129 -96 -135 -8 -3 -14 -12 -14 -21 0 -9 -24
-39 -53 -67 -29 -27 -63 -64 -75 -81 -12 -17 -35 -37 -51 -44 -17 -6 -37 -23
-46 -36 -16 -25 -227 -168 -274 -185 -14 -6 -66 -30 -116 -54 -113 -54 -134
-61 -275 -86 -242 -44 -415 -47 -589 -12 -42 8 -83 16 -91 17 -105 16 -179 37
-217 62 -12 8 -27 14 -33 14 -6 0 -27 11 -48 23 -20 13 -50 27 -67 31 -37 9
-190 108 -268 173 -92 77 -227 212 -227 227 0 8 -13 25 -29 38 -26 21 -101
127 -101 143 0 4 -18 32 -40 64 -22 31 -40 65 -40 75 0 11 -11 42 -24 70 -50
106 -77 188 -87 268 -5 46 -15 106 -20 133 -13 60 -6 371 10 500 13 100 39
189 82 280 15 33 31 74 35 90 4 17 20 49 36 72 15 23 28 44 28 48 0 3 11 21
25 39 14 18 25 40 25 48 0 9 18 33 41 54 22 22 47 51 55 67 8 15 49 61 92 102
42 41 97 94 122 118 25 25 63 54 85 66 22 12 68 42 103 66 35 25 75 48 90 52
15 3 44 17 64 30 21 12 42 23 47 23 5 0 26 9 48 19 90 46 473 115 583 105 25
-2 79 -6 120 -10z"/>
<path d="M30034 13081 c-224 -55 -400 -225 -468 -451 -74 -241 -56 -532 44
-730 95 -189 261 -314 464 -350 308 -54 603 110 700 390 9 25 16 55 16 68 0
21 -3 22 -90 22 -73 0 -90 -3 -90 -15 0 -35 -53 -129 -99 -175 -130 -130 -351
-163 -527 -81 -83 39 -167 124 -211 212 -57 114 -73 190 -73 340 0 225 49 368
165 485 171 172 476 174 646 4 46 -46 99 -139 99 -174 0 -20 23 -26 106 -26
l74 0 0 28 c-1 72 -70 208 -147 286 -154 156 -390 221 -609 167z"/>
<path d="M27282 13063 c-5 -10 -21 -52 -37 -93 -15 -41 -42 -115 -60 -165 -19
-49 -59 -160 -90 -245 -32 -85 -82 -222 -112 -305 -30 -82 -71 -193 -90 -245
-18 -52 -42 -117 -53 -145 -10 -27 -35 -95 -55 -150 -20 -55 -41 -108 -46
-117 -19 -36 -11 -39 87 -36 l97 3 12 40 c13 39 116 333 130 368 7 16 31 17
315 17 284 0 308 -1 313 -17 3 -10 15 -45 27 -78 13 -33 44 -121 70 -195 l48
-135 82 -3 c46 -2 89 -1 96 2 10 4 7 20 -11 68 -26 69 -141 382 -181 493 -14
39 -38 104 -54 145 -16 41 -40 107 -53 145 -14 39 -55 149 -90 245 -36 96 -85
229 -109 295 l-44 120 -91 3 c-80 2 -93 0 -101 -15z m129 -293 c9 -30 38 -113
64 -185 108 -300 145 -410 142 -418 -3 -9 -467 -10 -476 -2 -4 5 11 54 50 160
12 33 36 103 55 155 28 80 103 293 119 338 9 26 28 6 46 -48z"/>
<path d="M28255 13058 c-3 -12 -4 -354 -3 -758 l3 -735 90 0 90 0 3 292 2 292
178 3 c146 2 180 0 193 -12 9 -8 40 -60 69 -115 63 -119 108 -203 164 -305 22
-41 50 -93 62 -115 l22 -40 93 -3 c102 -3 127 1 111 21 -8 10 -103 182 -220
397 -19 36 -50 91 -68 123 -19 32 -34 66 -34 75 0 11 17 24 45 35 96 40 180
146 211 267 19 74 16 244 -6 295 -68 162 -148 236 -303 283 -41 12 -123 16
-374 19 l-322 5 -6 -24z m575 -148 c128 -16 198 -59 242 -149 18 -38 22 -63
23 -146 0 -88 -3 -106 -26 -150 -28 -55 -89 -108 -147 -126 -22 -7 -126 -14
-259 -16 l-223 -5 0 295 c0 161 3 297 7 300 10 11 290 8 383 -3z"/>
<path d="M31105 13068 c-3 -7 -4 -348 -3 -758 l3 -745 90 0 90 0 2 335 1 335
404 0 403 0 3 -338 2 -338 88 3 87 3 0 755 0 755 -87 3 -88 3 -2 -338 -3 -338
-400 0 -400 0 -5 335 c-3 184 -7 336 -8 338 -1 1 -40 2 -87 2 -59 0 -87 -4
-90 -12z"/>
<path d="M33608 12608 l-3 -173 -173 -5 c-94 -3 -172 -8 -172 -12 0 -5 0 -62
0 -128 l0 -120 175 0 175 0 0 -180 0 -180 125 0 125 0 0 180 0 180 178 2 177
3 0 125 0 125 -177 3 -178 2 0 175 0 175 -125 0 -125 0 -2 -172z"/>
<path d="M27211 10944 c-150 -33 -281 -127 -338 -241 -24 -49 -29 -73 -31
-156 -4 -94 -2 -102 27 -162 61 -124 178 -194 456 -274 192 -55 264 -85 314
-127 117 -98 82 -286 -69 -368 -127 -69 -308 -74 -439 -13 -65 30 -117 89
-138 153 l-17 54 -89 0 -90 0 5 -49 c12 -119 113 -247 240 -305 100 -45 174
-59 303 -58 129 0 210 18 302 64 235 117 312 405 161 596 -73 92 -178 144
-423 212 -244 67 -339 125 -366 222 -28 106 33 219 147 269 22 10 73 23 112
29 181 29 354 -50 397 -181 l17 -49 85 0 86 0 -7 51 c-32 239 -343 399 -645
333z"/>
<path d="M33559 10942 c-142 -33 -273 -116 -355 -225 -48 -64 -117 -199 -128
-252 -42 -206 -47 -338 -17 -488 64 -316 252 -515 535 -566 324 -59 630 129
736 451 48 146 60 314 35 478 -35 234 -137 406 -305 517 -138 91 -334 124
-501 85z m231 -163 c212 -34 364 -210 400 -461 46 -316 -61 -594 -270 -696
-223 -110 -490 -31 -615 182 -62 106 -84 206 -84 376 0 131 9 195 41 287 66
185 240 315 433 322 17 0 59 -4 95 -10z"/>
<path d="M28107 10933 c-13 -13 -8 -153 6 -153 6 -1 107 0 223 0 116 0 218 -2
227 -6 16 -6 17 -60 17 -680 l0 -674 90 0 90 0 2 678 3 677 228 2 c125 1 232
5 237 8 11 7 14 113 4 139 -6 14 -64 16 -563 16 -307 0 -561 -3 -564 -7z"/>
<path d="M29510 10392 c0 -597 1 -610 58 -716 44 -83 138 -169 234 -214 98
-47 183 -66 293 -66 279 0 499 148 569 383 14 47 16 128 16 608 l0 554 -87 -3
-88 -3 -5 -555 -5 -555 -25 -50 c-34 -69 -95 -127 -176 -166 -68 -33 -71 -34
-199 -34 -119 0 -135 3 -187 27 -72 33 -152 108 -186 173 l-27 50 -5 555 -5
555 -87 3 -88 3 0 -549z"/>
<path d="M31050 10180 l0 -760 268 0 c334 0 433 15 572 85 219 111 350 367
350 680 -1 315 -134 569 -355 674 -150 72 -215 81 -561 81 l-274 0 0 -760z
m645 575 c91 -24 144 -54 208 -117 197 -195 213 -647 32 -880 -104 -133 -262
-183 -555 -176 l-145 3 -3 589 c-2 465 1 592 10 599 21 14 385 0 453 -18z"/>
<path d="M32555 10918 c-3 -13 -4 -354 -3 -758 l3 -735 90 0 90 0 0 755 0 755
-87 3 c-84 3 -88 2 -93 -20z"/>
</g>
</svg>
