<?xml version="1.0" standalone="no"?>
<!DOCTYPE svg PUBLIC "-//W3C//DTD SVG 20010904//EN"
 "http://www.w3.org/TR/2001/REC-SVG-20010904/DTD/svg10.dtd">
<svg version="1.0" xmlns="http://www.w3.org/2000/svg"
 width="6250.000000pt" height="4419.000000pt" viewBox="0 0 6250.000000 4419.000000"
 preserveAspectRatio="xMidYMid meet">

<g transform="translate(0.000000,4419.000000) scale(0.100000,-0.100000)"
fill="#000000" stroke="none">
<path d="M1368 33479 c-17 -9 -18 -529 -18 -10678 0 -8988 2 -10670 14 -10680
10 -8 555 -11 2065 -11 1129 0 2057 2 2062 5 5 4 9 3319 9 8576 l0 8570 25 25
24 24 5658 -3 c5282 -2 5666 -4 5783 -20 85 -12 133 -23 150 -36 14 -10 58
-26 99 -35 40 -9 82 -26 94 -37 12 -10 39 -22 60 -26 21 -3 52 -17 68 -30 16
-14 44 -29 63 -34 18 -5 51 -23 71 -39 21 -17 42 -30 48 -30 5 0 25 -13 44
-30 18 -16 39 -30 45 -30 6 0 29 -16 52 -36 22 -19 58 -50 78 -67 109 -93 328
-330 328 -355 0 -6 14 -27 30 -45 17 -19 30 -40 30 -45 0 -6 14 -27 31 -46 17
-20 35 -52 41 -72 5 -20 20 -48 33 -62 13 -14 26 -43 29 -66 4 -23 17 -54 30
-69 14 -16 28 -53 36 -89 6 -35 22 -81 35 -103 16 -28 25 -64 30 -120 3 -44
17 -128 31 -187 l24 -107 0 -7679 c0 -6505 2 -7681 14 -7691 16 -13 4114 -17
4128 -3 4 4 9 3511 10 7792 l3 7785 23 48 c12 27 27 81 33 120 6 40 21 93 34
119 14 25 30 68 36 95 7 26 22 62 34 78 13 17 25 46 29 66 4 21 14 43 23 50 9
8 27 38 39 67 13 28 28 52 33 52 5 0 18 20 30 44 11 25 31 56 43 70 13 13 39
46 58 71 42 56 297 315 310 315 5 0 25 16 44 35 20 19 42 35 49 35 8 0 22 9
33 21 10 12 40 32 65 44 25 13 51 30 58 39 7 8 29 20 49 27 20 7 49 22 64 34
14 12 44 25 66 28 21 4 51 16 66 28 15 12 57 28 93 36 37 7 81 23 100 34 23
14 72 26 156 37 113 16 1088 17 13302 17 12219 0 13201 -1 13465 -17 210 -12
305 -22 360 -37 86 -23 210 -41 278 -41 26 0 58 -6 72 -13 50 -27 97 -38 186
-47 58 -5 106 -16 132 -29 22 -11 73 -26 114 -32 40 -6 96 -22 123 -34 28 -13
79 -29 115 -35 35 -6 77 -21 92 -32 16 -11 55 -23 87 -28 33 -5 79 -19 103
-33 24 -14 68 -30 99 -37 31 -6 65 -20 74 -30 9 -10 43 -24 74 -31 31 -7 66
-21 77 -31 12 -11 43 -25 70 -32 27 -7 66 -24 86 -38 21 -14 54 -29 75 -33 21
-3 49 -17 63 -30 14 -12 41 -26 60 -30 19 -4 46 -17 60 -30 14 -13 44 -28 66
-34 23 -6 48 -19 55 -28 8 -9 34 -25 59 -36 25 -11 58 -30 73 -43 16 -13 37
-24 47 -24 10 0 31 -11 47 -24 15 -13 44 -31 63 -41 19 -10 48 -28 63 -41 16
-13 35 -24 42 -24 8 0 30 -13 48 -30 19 -16 39 -30 45 -30 6 0 29 -16 52 -35
23 -19 46 -35 52 -35 6 0 25 -12 43 -27 17 -16 45 -36 61 -45 29 -18 54 -36
159 -118 31 -25 69 -53 84 -62 25 -17 56 -42 127 -104 20 -18 50 -44 68 -59
186 -158 316 -275 359 -323 7 -7 55 -57 108 -110 81 -82 155 -165 339 -382 16
-19 41 -48 55 -65 13 -16 40 -48 58 -70 19 -22 42 -55 51 -72 9 -18 21 -33 26
-33 5 0 19 -18 30 -40 11 -21 29 -44 40 -50 11 -6 20 -17 20 -24 0 -8 15 -33
34 -55 19 -23 38 -51 42 -63 4 -12 17 -31 30 -41 13 -10 24 -24 24 -32 0 -7
16 -32 35 -55 19 -23 35 -48 35 -55 0 -7 13 -29 30 -50 16 -20 32 -46 36 -58
4 -12 20 -37 35 -55 16 -18 29 -42 29 -53 0 -11 11 -31 24 -44 13 -13 29 -39
35 -58 6 -19 23 -49 36 -67 13 -18 30 -49 36 -69 6 -20 22 -47 34 -61 12 -14
25 -41 29 -61 4 -20 15 -44 26 -54 10 -9 27 -40 36 -69 9 -28 27 -63 39 -78
12 -14 25 -45 29 -68 4 -23 17 -56 30 -74 13 -17 27 -49 30 -71 4 -22 18 -56
31 -75 13 -19 31 -64 39 -98 8 -35 22 -72 31 -83 10 -10 24 -49 31 -86 8 -37
23 -80 34 -95 11 -14 24 -56 30 -91 5 -36 21 -87 35 -114 13 -26 28 -80 34
-119 5 -39 19 -90 30 -113 13 -24 26 -77 31 -123 10 -82 25 -143 42 -165 5 -6
13 -53 18 -105 14 -133 19 -165 42 -238 14 -46 22 -115 29 -238 5 -95 16 -228
24 -295 9 -67 20 -158 25 -202 6 -50 10 -2123 10 -5501 0 -4320 3 -5424 13
-5437 11 -16 142 -17 2067 -17 1995 0 2055 0 2073 19 16 16 17 24 8 57 -8 28
-11 1656 -11 5664 0 5192 -3 5828 -24 5933 -3 12 -12 51 -20 87 -8 36 -17 123
-20 194 -8 154 -21 253 -42 315 -9 25 -20 105 -26 176 -6 82 -18 150 -30 185
-11 30 -26 105 -33 165 -14 118 -21 149 -41 180 -7 11 -18 63 -24 115 -7 52
-23 121 -36 152 -13 31 -28 93 -33 137 -5 49 -17 94 -29 115 -11 19 -25 67
-31 108 -7 40 -21 90 -32 112 -11 21 -27 73 -35 115 -9 42 -25 90 -35 108 -11
17 -24 60 -30 95 -6 35 -21 81 -33 103 -13 22 -26 60 -30 85 -4 25 -18 64 -32
87 -13 24 -29 68 -35 100 -6 34 -21 69 -35 86 -13 16 -24 38 -24 50 0 37 -19
93 -39 116 -11 13 -24 45 -30 72 -6 27 -22 66 -35 87 -14 20 -28 56 -32 78 -3
23 -17 54 -30 69 -13 15 -27 44 -30 64 -7 40 -20 69 -40 89 -8 7 -21 37 -29
66 -9 30 -25 62 -36 71 -10 10 -22 36 -26 58 -3 21 -16 51 -28 66 -13 14 -28
45 -34 68 -6 23 -22 55 -34 70 -13 15 -31 49 -40 74 -10 26 -27 55 -37 64 -11
10 -20 27 -20 37 0 24 -15 53 -40 78 -10 10 -23 35 -29 54 -5 20 -21 50 -35
67 -14 17 -29 43 -32 57 -4 15 -17 38 -30 52 -12 14 -26 37 -29 52 -4 15 -18
38 -31 51 -13 14 -29 40 -36 58 -6 19 -24 49 -40 67 -15 18 -28 40 -28 49 0 8
-14 31 -30 50 -17 18 -30 39 -30 46 0 7 -16 32 -35 56 -19 24 -35 49 -35 56 0
7 -14 26 -30 43 -17 18 -30 38 -30 45 0 7 -13 28 -30 47 -16 19 -29 41 -30 47
0 7 -16 30 -35 52 -19 21 -35 43 -35 49 0 6 -14 27 -30 45 -17 19 -30 40 -30
46 0 6 -14 26 -31 44 -17 17 -37 44 -45 60 -8 15 -18 27 -23 27 -5 0 -19 19
-30 43 -12 24 -32 53 -46 65 -14 12 -25 28 -25 36 0 8 -9 21 -20 29 -21 15
-63 67 -106 132 -15 22 -33 44 -40 48 -8 4 -21 21 -29 36 -14 27 -43 63 -100
121 -14 14 -25 29 -25 34 0 4 -15 22 -32 40 -48 47 -93 100 -104 118 -12 21
-120 144 -161 183 -18 17 -33 37 -33 43 0 7 -11 18 -25 24 -14 6 -25 15 -25
20 0 8 -36 49 -88 100 -7 7 -21 21 -30 30 -9 9 -22 23 -28 30 -6 7 -20 20 -30
29 -11 9 -29 27 -41 40 -23 25 -32 35 -64 66 -10 10 -43 42 -71 71 -29 30 -59
59 -66 65 -7 7 -22 20 -32 30 -10 11 -23 24 -30 30 -16 16 -85 79 -102 93 -7
6 -21 20 -30 30 -10 11 -33 32 -52 48 -18 16 -49 43 -69 60 -43 38 -109 95
-161 138 -22 18 -55 48 -74 66 -19 17 -38 32 -42 32 -5 0 -17 10 -27 23 -10
12 -30 30 -45 39 -15 10 -38 28 -52 40 -13 13 -45 39 -70 58 -70 53 -139 108
-159 126 -10 8 -34 25 -53 36 -19 11 -34 23 -34 27 0 4 -22 20 -50 35 -27 15
-53 33 -57 40 -5 7 -22 21 -40 30 -18 9 -36 22 -40 30 -4 7 -23 21 -42 31 -19
9 -46 28 -60 41 -14 13 -31 24 -37 24 -6 0 -23 11 -38 25 -15 14 -44 34 -64
44 -20 10 -46 28 -56 40 -11 12 -25 21 -32 21 -7 0 -28 13 -46 29 -18 15 -43
31 -56 35 -12 4 -35 18 -51 32 -16 13 -45 31 -65 39 -20 9 -36 20 -36 25 0 6
-21 20 -46 31 -26 10 -60 31 -76 44 -16 14 -35 25 -41 25 -7 0 -34 16 -61 35
-27 19 -56 35 -64 35 -8 0 -30 14 -49 30 -18 17 -42 30 -53 30 -10 0 -32 11
-48 25 -17 14 -48 32 -70 39 -23 8 -50 24 -61 35 -11 11 -37 25 -58 30 -22 6
-49 20 -61 31 -12 12 -44 28 -71 36 -26 7 -56 23 -66 34 -10 11 -36 25 -59 31
-22 6 -53 21 -67 34 -15 12 -45 25 -66 28 -22 4 -48 16 -58 27 -10 11 -44 28
-74 37 -31 8 -68 26 -83 38 -15 13 -47 26 -70 30 -24 4 -56 18 -71 31 -16 13
-46 27 -68 30 -22 4 -56 17 -75 30 -19 13 -64 31 -99 40 -36 9 -65 20 -65 24
0 13 -66 40 -98 40 -16 0 -46 12 -67 26 -21 14 -63 30 -94 35 -31 6 -67 18
-81 28 -28 20 -75 36 -133 46 -21 3 -53 16 -71 29 -22 15 -57 25 -96 29 -38 4
-73 15 -91 27 -16 12 -65 28 -109 36 -45 9 -102 26 -128 39 -26 13 -76 27
-112 31 -36 4 -84 17 -107 30 -28 14 -70 25 -120 29 -43 4 -96 16 -118 27 -44
21 -167 48 -221 48 -19 0 -55 9 -80 20 -54 25 -129 40 -201 40 -31 0 -83 10
-124 25 -50 17 -111 28 -198 35 -148 12 -182 17 -236 36 -49 17 -206 34 -317
34 -94 1 -186 12 -303 37 -75 16 -1590 17 -25015 20 -16955 2 -24941 -1
-24952 -8z"/>
</g>
</svg>
